<svg xmlns="http://www.w3.org/2000/svg" viewBox="-10 -5 85 100">
  <path fill="#ffffff" d="M14.09,84.68c-6.07-3.09-10.77-7.19-14.09-12.3l9.63-9.63c1.78,4.25,4.93,7.64,9.45,10.15,4.52,2.51,9.57,3.77,15.14,3.77,5.03,0,9.03-.97,12.01-2.9,2.98-1.93,4.5-4.87,4.58-8.82,0-2.47-.5-4.68-1.51-6.61-1.01-1.93-2.63-3.65-4.87-5.16s-4.31-2.69-6.21-3.54c-1.9-.85-4.54-1.93-7.95-3.25-2.47-.93-4.23-1.6-5.28-2.03-1.04-.43-2.67-1.14-4.87-2.15s-3.83-1.88-4.87-2.61c-1.04-.73-2.34-1.74-3.89-3.02-1.55-1.28-2.67-2.53-3.36-3.77-.7-1.24-1.33-2.73-1.91-4.47-.58-1.74-.87-3.58-.87-5.51,0-7.04,2.61-12.6,7.83-16.7C18.27,2.05,24.9,0,32.94,0c13.84,0,24.4,4.21,31.67,12.64l-8.93,8.93c-4.49-6.81-11.95-10.21-22.39-10.21-4.33,0-7.83.91-10.5,2.73-2.67,1.82-4,4.39-4,7.71,0,1.39.35,2.73,1.04,4s1.51,2.34,2.44,3.19c.93.85,2.3,1.78,4.12,2.78s3.38,1.78,4.7,2.32c1.31.54,3.17,1.31,5.57,2.32,3.48,1.39,6.13,2.49,7.95,3.31,1.82.81,4.19,2.09,7.13,3.83,2.94,1.74,5.16,3.46,6.67,5.16,1.51,1.7,2.86,3.91,4.06,6.61s1.8,5.68,1.8,8.93c0,8.35-2.8,14.62-8.41,18.79-5.61,4.18-12.97,6.26-22.1,6.26-7.04,0-13.59-1.55-19.66-4.64Z"/>
</svg>